<?xml version="1.0" encoding="UTF-8"?>
<svg width="60px" height="60px" viewBox="0 0 60 60" version="1.1" xmlns="http://www.w3.org/2000/svg" xmlns:xlink="http://www.w3.org/1999/xlink">
    <title>图标-final备份 2</title>
    <g id="图标-final备份-2" stroke="none" stroke-width="1" fill="none" fill-rule="evenodd">
        <rect fill="#FFFFFF" x="0" y="0" width="60" height="60"></rect>
        <path d="M50,17.0223536 L44.8665556,24.6699011 L17.4601334,24.6701501 C17.081844,24.6701501 16.7680172,24.9474591 16.7090348,25.310791 L16.6990738,25.4348253 C16.6990738,25.8149118 16.9750716,26.1302295 17.3366856,26.1894921 L17.4601334,26.1995004 L43.8390833,26.1994106 L38.7056389,33.8456464 L12.8937755,33.8462519 C12.515486,33.8462519 12.2016593,34.1235608 12.1426768,34.4868927 L12.1327158,34.610927 C12.1327158,34.9910136 12.4087136,35.3063312 12.7703277,35.3655938 L12.8937755,35.3756021 L37.6794722,35.3751559 L32.5460278,43.0213917 L15.9380141,43.0223536 C8.79254623,43.0223536 3,37.2022893 3,30.0228761 C3,22.843463 8.79254623,17.0233987 15.9380141,17.0233987 L50,17.0223536 Z" id="路径" fill="#1A5FE6"></path>
    </g>
</svg>