<?xml version="1.0" standalone="no"?><!DOCTYPE svg PUBLIC "-//W3C//DTD SVG 1.1//EN" "http://www.w3.org/Graphics/SVG/1.1/DTD/svg11.dtd"><svg t="1619332526592" class="icon" viewBox="0 0 1024 1024" version="1.1" xmlns="http://www.w3.org/2000/svg" p-id="1410" xmlns:xlink="http://www.w3.org/1999/xlink" width="200" height="200"><defs><style type="text/css"></style></defs><path d="M512.104 64.125c-121.638 0-136.845 0.544-184.632 2.718A325.71 325.71 0 0 0 218.866 87.75 227.302 227.302 0 0 0 87.725 218.894 324.19 324.19 0 0 0 66.819 327.5c-2.171 47.78-2.714 62.987-2.714 184.625s0.544 137.11 2.714 184.903a327.089 327.089 0 0 0 20.907 108.606 229.36 229.36 0 0 0 131.141 131.144 326.258 326.258 0 0 0 108.606 20.629c47.787 2.174 62.99 2.718 184.632 2.718s137.116-0.544 184.903-2.718a327.657 327.657 0 0 0 108.606-20.629 231.415 231.415 0 0 0 131.141-131.144 327.816 327.816 0 0 0 20.635-108.606c2.171-47.78 2.715-63.265 2.715-184.903s-0.544-136.845-2.715-184.625a324.873 324.873 0 0 0-20.635-108.606A229.36 229.36 0 0 0 805.614 87.75a327.07 327.07 0 0 0-108.606-20.907c-47.787-2.174-63.262-2.718-184.904-2.718z m0 80.911c119.739 0 133.858 0.265 181.102 2.439a248.05 248.05 0 0 1 83.085 15.472 148.232 148.232 0 0 1 85.256 84.981 252.16 252.16 0 0 1 15.206 83.35c2.171 47.25 2.714 61.356 2.714 180.833s-0.544 133.862-2.714 181.098a250.049 250.049 0 0 1-15.206 83.085 139.375 139.375 0 0 1-33.668 51.585 137.196 137.196 0 0 1-51.589 33.674 249.959 249.959 0 0 1-83.085 15.206c-47.243 2.174-61.363 2.718-181.102 2.718s-133.587-0.544-180.83-2.718a252.231 252.231 0 0 1-83.354-15.206 136.204 136.204 0 0 1-51.317-33.674 139.395 139.395 0 0 1-33.668-51.585 255.366 255.366 0 0 1-15.475-83.085c-2.171-47.25-2.443-61.356-2.443-181.098s0.272-133.583 2.443-180.833a257.54 257.54 0 0 1 15.475-83.35 148.796 148.796 0 0 1 84.984-84.981 249.964 249.964 0 0 1 83.354-15.472c47.246-2.174 61.365-2.439 180.832-2.439z m0 137.11c-127.087 0.08-230.049 103.157-229.973 230.244 0.073 127.087 103.157 230.045 230.244 229.979 127.084-0.08 230.045-103.157 229.973-230.244 0.05-126.968-102.839-229.926-229.804-229.979h-0.44z m0 379.312c-82.475 0-149.333-66.858-149.333-149.333s66.858-149.333 149.333-149.333 149.333 66.858 149.333 149.333c0.001 82.475-66.857 149.333-149.333 149.333zM805.07 273.197c0 29.697-24.069 53.759-53.759 53.759s-53.759-24.063-53.759-53.759c0-29.684 24.069-53.759 53.759-53.759 29.66 0.079 53.683 24.102 53.759 53.759z" fill="#000000" p-id="1411"></path></svg>